<?xml version="1.0" encoding="iso-8859-1"?>
<!-- Generator: Adobe Illustrator 19.0.0, SVG Export Plug-In . SVG Version: 6.00 Build 0)  -->
<svg version="1.1" id="Layer_1" xmlns="http://www.w3.org/2000/svg" xmlns:xlink="http://www.w3.org/1999/xlink" x="0px" y="0px"
	 viewBox="0 0 512 512" style="enable-background:new 0 0 512 512;" xml:space="preserve">
<g>
	<g>
		<g>
			<path fill="white" d="M447.147,134.613c-0.533-1.28-1.28-2.453-2.347-3.413l-128-128c-1.92-2.027-4.693-3.2-7.467-3.2H74.667
				C68.8,0,64,4.8,64,10.667v490.667C64,507.2,68.8,512,74.667,512h362.667C443.2,512,448,507.2,448,501.333V138.667
				C448,137.28,447.68,135.893,447.147,134.613z M320,36.373L411.627,128H320V36.373z M426.667,490.667H85.333V21.333h213.333
				v117.333c0,5.867,4.8,10.667,10.667,10.667h117.333V490.667z"/>
			<path fill="white" d="M217.28,235.52l-17.813,104.32l-17.6-3.2c-10.24-1.92-20.693,0.427-29.227,6.4c-8.747,6.08-14.613,15.467-16.32,25.92
				c-3.627,21.547,10.667,42.347,31.893,46.187c2.133,0.427,4.373,0.64,6.613,0.64c8-0.107,15.787-2.56,22.187-7.253
				c8.747-5.973,14.72-15.253,16.64-25.707l4.373-25.92l9.6-56.64l88.32-19.307l-6.72,39.467l-17.6-3.2
				c-10.24-1.92-20.8,0.427-29.227,6.4c-8.64,6.08-14.507,15.36-16.213,25.813c-3.627,21.547,10.667,42.347,31.893,46.187
				c2.133,0.427,4.373,0.64,6.613,0.64c8,0,15.787-2.56,22.293-7.253c8.747-5.973,14.72-15.253,16.64-25.707l1.6-9.6L348.8,214.933
				c0.64-3.733-0.533-7.573-3.413-10.027c-2.453-2.133-5.973-2.987-9.173-2.24l-110.72,24.213
				C221.227,227.84,218.027,231.253,217.28,235.52z M192.853,379.52c-0.96,4.8-3.84,8.96-7.893,11.733
				c-3.627,2.667-8.32,3.84-12.8,3.093c-10.027-2.027-16.533-11.627-14.72-21.653c0.747-4.8,3.413-9.173,7.467-12.053
				c2.88-2.027,6.4-3.2,9.92-3.2c1.067,0,2.133,0.107,3.2,0.32l17.92,3.307L192.853,379.52z M302.4,360.107
				c-1.173,4.8-3.947,9.067-8,11.84c-3.627,2.773-8.32,3.84-12.8,3.093c-10.027-2.027-16.533-11.627-14.72-21.653
				c0.747-4.8,3.413-9.173,7.467-12.053c2.88-2.027,6.4-3.2,10.027-3.2c1.067,0,2.133,0.107,3.2,0.32l17.92,3.307L302.4,360.107z
				 M237.013,246.4l88.32-19.307L320,258.56l-88.32,19.307L237.013,246.4z"/>
		</g>
	</g>
</g>
<g>
</g>
<g>
</g>
<g>
</g>
<g>
</g>
<g>
</g>
<g>
</g>
<g>
</g>
<g>
</g>
<g>
</g>
<g>
</g>
<g>
</g>
<g>
</g>
<g>
</g>
<g>
</g>
<g>
</g>
</svg>
