<?xml version="1.0" encoding="iso-8859-1"?>
<!-- Generator: Adobe Illustrator 16.0.0, SVG Export Plug-In . SVG Version: 6.00 Build 0)  -->
<!DOCTYPE svg PUBLIC "-//W3C//DTD SVG 1.1//EN" "http://www.w3.org/Graphics/SVG/1.1/DTD/svg11.dtd">
<svg version="1.1" id="Capa_1" xmlns="http://www.w3.org/2000/svg" xmlns:xlink="http://www.w3.org/1999/xlink" x="0px" y="0px"
	 width="27.678px" height="27.678px" viewBox="0 0 27.678 27.678" style="enable-background:new 0 0 27.678 27.678;"
	 xml:space="preserve">
<g>
	<path fill="white" d="M6.934,26.169c-0.771,0-1.6-0.584-1.6-1.866v-2.119H2.085C0.936,22.184,0,21.249,0,20.1V3.593
		c0-1.149,0.936-2.085,2.085-2.085h23.508c1.149,0,2.085,0.936,2.085,2.086v16.503c0,1.15-0.936,2.087-2.085,2.087H12.892
		L8.16,25.717C7.76,26.018,7.347,26.169,6.934,26.169z M2.085,3.508C2.038,3.508,2,3.546,2,3.593v16.505
		c0,0.047,0.037,0.084,0.085,0.084h5.249v3.656l4.894-3.654h13.365c0.048,0,0.085-0.039,0.085-0.087V3.594
		c0-0.048-0.037-0.086-0.085-0.086H2.085z M24.064,4.988H3.479v13.62h5.224v2.191l3.165-2.191h12.194V4.988H24.064z"/>
</g>
<g>
</g>
<g>
</g>
<g>
</g>
<g>
</g>
<g>
</g>
<g>
</g>
<g>
</g>
<g>
</g>
<g>
</g>
<g>
</g>
<g>
</g>
<g>
</g>
<g>
</g>
<g>
</g>
<g>
</g>
</svg>
