<?xml version="1.0" encoding="iso-8859-1"?>
<!-- Generator: Adobe Illustrator 19.0.0, SVG Export Plug-In . SVG Version: 6.00 Build 0)  -->
<svg version="1.1" id="Capa_1" xmlns="http://www.w3.org/2000/svg" xmlns:xlink="http://www.w3.org/1999/xlink" x="0px" y="0px"
	 viewBox="0 0 512 512" style="enable-background:new 0 0 512 512;" xml:space="preserve">
<g>
	<g>
		<path fill="white" d="M356.324,0v76.108c0,19.075,15.519,34.594,34.594,34.594h76.108L356.324,0z"/>
	</g>
</g>
<g>
	<g>
		<path fill="white" d="M390.918,145.298c-38.054,0-69.189-31.135-69.189-69.189V0H44.973v442.811c0,38.054,31.135,69.189,69.189,69.189h283.675
			c38.054,0,69.189-31.135,69.189-69.189V145.298H390.918z M390.92,422.054h-0.001H121.081v-193.73H390.92V422.054z"/>
	</g>
</g>
<g>
	<g>
		<circle fill="white" cx="328.646" cy="283.694" r="27.676"/>
	</g>
</g>
<g>
	<g>
		<polygon fill="white" points="280.216,304.432 231.784,366.702 204.108,332.108 155.676,394.379 356.324,394.379 		"/>
	</g>
</g>
<g>
</g>
<g>
</g>
<g>
</g>
<g>
</g>
<g>
</g>
<g>
</g>
<g>
</g>
<g>
</g>
<g>
</g>
<g>
</g>
<g>
</g>
<g>
</g>
<g>
</g>
<g>
</g>
<g>
</g>
</svg>
